<svg width="1000" height="1000" viewBox="0 0 1000 1000" fill="none" xmlns="http://www.w3.org/2000/svg">
<path d="M318.725 158.428C321.13 158.387 323.536 158.414 325.94 158.508C333.733 158.799 338.441 160.222 345.76 161.197C354.178 162.318 358.04 161.845 366.619 164.537C374.571 167.033 382.8 171.171 390.417 173.514C403.001 177.385 415.002 177.287 424.615 188.215C443.027 209.147 443.423 252.039 434.575 277.054C433.846 279.115 432.755 281.686 431.788 283.435C430.463 285.919 425.176 290.536 425.882 293.541C427.705 301.291 433.086 307.811 434.966 315.896C437.495 326.773 439.18 337.525 441.036 348.486C444.209 367.224 447.797 385.868 453.723 403.955C460.016 423.386 469.646 440.674 478.262 459.209C481.353 465.859 485.143 477.042 488.657 483.754C489.043 484.491 493.521 484.46 494.78 484.373C505.713 483.607 516.675 482.663 527.622 482.076C553.018 480.737 578.438 480.043 603.867 479.996C619.546 479.908 639.775 477.613 652.734 487.935C663.574 495.4 674.732 523.853 655.523 527.876C642.124 530.688 623.818 532.881 609.981 533.56C610.274 536.377 610.732 539.385 610.693 542.222C610.645 546.392 609.297 550.659 605.689 553.081C593.662 561.172 525.552 560.366 521.182 564.756C521.079 567.251 527.559 581.948 530.02 582.178C538.501 582.959 549.053 581.108 557.647 580.176C576.87 578.237 596.079 576.196 615.278 574.048C640.19 571.382 666.231 568.262 691.099 570.703C720.562 573.594 739.956 593.779 740.186 623.496C740.41 652.466 724.883 679.976 708.403 702.788C703.921 708.428 699.766 714.644 693.184 717.227C691.797 717.974 688.623 719.414 688.076 721.001C685.508 728.423 683.75 736.66 681.763 744.277L667.446 799.814C665.781 806.367 659.766 838.14 652.227 839.893C640.01 842.734 621.895 841.772 608.833 841.772L550.142 841.763L499.033 841.787C489.683 841.792 480.364 841.875 470.998 841.65C462.024 841.499 454.854 837.197 453.078 827.969C451.339 818.94 445.923 810.347 442.176 801.816C436.259 788.237 431.519 774.175 428.007 759.785C425.381 749.253 424.318 737.979 421.916 727.534C421.23 724.556 408.233 719.551 405.425 717.217C403.669 715.757 400.828 713.789 399.163 711.963C385.491 699.473 377.045 681.602 369.683 664.78C359.441 641.377 353.027 615.796 348.789 590.635C347.753 584.482 348.489 576.953 347.59 570.225C345.598 556.304 340.378 542.324 336.221 528.867C334.527 523.384 308.338 523.887 305.736 512.627C303.682 503.74 304.346 502.231 307.803 494.473L305.986 493.901C301.51 492.505 300.892 490.552 299.73 486.156C296.793 475.043 294.324 463.795 291.5 452.654L272.756 380.21L264.462 348.944C259.445 330.208 253.133 314.566 280.051 313.829C272.55 272.642 268.429 234.316 273.516 192.417C277.001 163.714 291.054 159.364 318.725 158.428ZM479.017 786.118C480.44 789.185 482.323 794.849 485.457 796.357C488.589 797.861 618.941 797.832 631.367 796.558C634.497 794.009 648.98 736.069 650.479 727.939L645.791 728.223C624.697 730.063 602.134 729.844 580.938 729.78L512.305 729.37C506.06 729.292 467.029 728.12 465.491 729.507C462.858 740.098 473.924 775.034 479.017 786.118Z" fill="black"/>
</svg>
